<?xml version="1.0" encoding="utf-8" ?><svg xmlns="http://www.w3.org/2000/svg" xmlns:xlink="http://www.w3.org/1999/xlink" width="2048" height="2048" viewBox="0 0 2048 2048"><path fill="#050F08" d="M1465.94 222.355C1467.46 222.343 1468.99 222.3 1470.5 222.48C1474.76 222.984 1479.17 225.183 1481.57 228.822C1483.45 231.673 1484.58 235.598 1484.33 238.995C1482.95 257.382 1476.06 282.371 1472.27 301.085L1445.24 434.755C1487.4 424.012 1530.19 415.046 1572.61 405.32C1597.5 399.613 1622.58 392.403 1647.62 387.699C1650.36 387.186 1653.12 386.895 1655.87 387.405C1660.1 388.186 1663.92 390.952 1666.1 394.638C1668.1 398.034 1668.65 401.836 1668.14 405.711C1667.19 412.944 1664.65 420.361 1662.84 427.451C1659.45 440.761 1656.14 454.091 1652.91 467.441L1618.22 609.87L1746.27 585.577C1767.74 581.495 1789.77 575.841 1811.47 573.41C1814.93 573.022 1818.2 572.939 1821.5 574.256C1825.31 575.739 1828.33 578.748 1829.83 582.557C1831.07 585.645 1831.45 588.503 1830.2 591.625C1825.89 602.401 1825.38 625.298 1824 637.673L1809.03 774.221C1807.01 792.725 1805.95 821.703 1800.81 838.577C1799.87 841.656 1798.29 843.86 1796.12 846.194C1779.17 864.364 1759.23 880.905 1741.04 897.95L1626.52 1005.31L1420.62 1198.34C1380.78 1235.7 1339.68 1272.5 1301.36 1311.38C1181.88 1432.62 1065.02 1556.63 947.106 1679.41L871.277 1758.42C861.995 1768.13 842.527 1791.3 832.694 1797.23C823.778 1802.61 652.986 1816.87 627.851 1819.31C617.828 1820.28 590.616 1820.97 582.955 1825.13C582.653 1825.29 582.361 1825.47 582.064 1825.64C580.544 1825.66 579.012 1825.7 577.499 1825.52C573.243 1825.02 568.825 1822.82 566.427 1819.18C564.548 1816.33 563.422 1812.4 563.676 1809C565.072 1790.28 571.838 1766.14 575.667 1747.25L602.752 1613.25C560.592 1623.99 517.802 1632.95 475.388 1642.68C450.5 1648.39 425.424 1655.6 400.376 1660.3C397.644 1660.81 394.883 1661.11 392.125 1660.59C387.905 1659.81 384.079 1657.05 381.903 1653.37C379.939 1650.04 379.332 1646.23 379.826 1642.43C380.759 1635.25 383.294 1627.83 385.092 1620.78C388.48 1607.52 391.784 1594.24 395.003 1580.95L429.784 1438.13L301.667 1462.43C280.215 1466.51 258.212 1472.16 236.53 1474.59C233.066 1474.98 229.795 1475.06 226.502 1473.74C222.687 1472.26 219.666 1469.25 218.168 1465.44C216.929 1462.36 216.553 1459.5 217.802 1456.37C222.114 1445.6 222.617 1422.7 223.998 1410.33L238.969 1273.78C240.992 1255.27 242.052 1226.3 247.192 1209.42C248.13 1206.34 249.706 1204.14 251.883 1201.81C268.832 1183.64 288.774 1167.09 306.956 1150.05L421.484 1042.69L627.382 849.655C667.215 812.301 708.322 775.502 746.636 736.624C866.122 615.377 982.986 491.369 1100.9 368.586L1176.23 290.093C1185.73 280.159 1205.27 256.822 1215.31 250.769C1224.22 245.394 1396.28 231.011 1421.5 228.558C1431.36 227.6 1457.48 226.974 1465.05 222.869C1465.35 222.706 1465.64 222.527 1465.94 222.355ZM1229.99 279.064C1189.53 319.728 1150.43 361.967 1110.74 403.402L881.081 643.104L811.512 715.843C795.738 732.581 780.439 750.023 763.913 766.029C730.158 798.72 694.669 829.934 660.329 862.049L406.842 1099.19L321.554 1178.92C306.552 1192.92 290.652 1206.57 276.414 1221.34L261.267 1364.84C258.646 1389.66 255.021 1414.8 253.57 1439.7L383.325 1414.42C402.397 1410.7 425.782 1404.37 444.679 1402.81C449 1402.46 452.323 1402.3 456.091 1404.79C459.869 1407.29 462.694 1411.27 463.446 1415.78C464.367 1421.3 463.479 1428.22 462.562 1433.74C458.995 1455.22 452.736 1476.79 447.696 1498L418.006 1622.89L547.93 1593.55C569.141 1588.78 592.029 1581.51 613.594 1579.65C619.989 1579.1 627.415 1579.36 632.912 1583.08C635.743 1585 637.564 1587.56 637.997 1590.97C639.851 1605.56 628.481 1647.79 625.073 1664.23C616.426 1705.93 607.069 1747.65 599.222 1789.5L610.153 1788.59L747.859 1775.73C770.975 1773.57 795.153 1772.64 818.013 1768.94C858.34 1728.29 897.396 1686.21 937.007 1644.86L1164.39 1407.54L1236.49 1332.16C1252.26 1315.42 1267.56 1297.98 1284.09 1281.97C1317.84 1249.28 1353.33 1218.07 1387.67 1185.95L1641.16 948.815L1726.45 869.083C1741.45 855.079 1757.35 841.426 1771.59 826.665L1786.78 682.72C1789.39 658.046 1792.99 633.054 1794.43 608.299L1664.68 633.582C1645.6 637.297 1622.22 643.634 1603.32 645.187C1599 645.542 1595.68 645.696 1591.91 643.205C1588.13 640.708 1585.31 636.73 1584.55 632.221C1583.63 626.7 1584.52 619.779 1585.44 614.257C1589 592.783 1595.26 571.21 1600.3 549.998L1629.99 425.105L1499.64 454.548C1478.54 459.294 1455.84 466.5 1434.41 468.347C1428.01 468.898 1420.59 468.639 1415.09 464.92C1412.26 463.003 1410.44 460.438 1410 457.029C1408.15 442.44 1419.52 400.206 1422.93 383.772C1431.57 342.069 1440.93 300.35 1448.78 258.5L1437.85 259.414L1300.14 272.271C1277.03 274.432 1252.85 275.354 1229.99 279.064Z"/><path fill="#7ACCFE" d="M1437.85 259.414L1448.78 258.5C1440.93 300.35 1431.57 342.069 1422.93 383.772C1419.52 400.206 1408.15 442.44 1410 457.029C1410.44 460.438 1412.26 463.003 1415.09 464.92C1420.59 468.639 1428.01 468.898 1434.41 468.347C1455.84 466.5 1478.54 459.294 1499.64 454.548L1629.99 425.105L1600.3 549.998C1595.26 571.21 1589 592.783 1585.44 614.257C1584.52 619.779 1583.63 626.7 1584.55 632.221C1585.31 636.73 1588.13 640.708 1591.91 643.205C1595.68 645.696 1599 645.542 1603.32 645.187C1622.22 643.634 1645.6 637.297 1664.68 633.582L1794.43 608.299C1792.99 633.054 1789.39 658.046 1786.78 682.72L1771.59 826.665C1757.35 841.426 1741.45 855.079 1726.45 869.083L1641.16 948.815L1387.67 1185.95C1353.33 1218.07 1317.84 1249.28 1284.09 1281.97C1267.56 1297.98 1252.26 1315.42 1236.49 1332.16L1164.39 1407.54L937.007 1644.86C897.396 1686.21 858.34 1728.29 818.013 1768.94C795.153 1772.64 770.975 1773.57 747.859 1775.73L610.153 1788.59L599.222 1789.5C607.069 1747.65 616.426 1705.93 625.073 1664.23C628.481 1647.79 639.851 1605.56 637.997 1590.97C637.564 1587.56 635.743 1585 632.912 1583.08C627.415 1579.36 619.989 1579.1 613.594 1579.65C592.029 1581.51 569.141 1588.78 547.93 1593.55L418.006 1622.89L447.696 1498C452.736 1476.79 458.995 1455.22 462.562 1433.74C463.479 1428.22 464.367 1421.3 463.446 1415.78C462.694 1411.27 459.869 1407.29 456.091 1404.79C452.323 1402.3 449 1402.46 444.679 1402.81C425.782 1404.37 402.397 1410.7 383.325 1414.42L253.57 1439.7C255.021 1414.8 258.646 1389.66 261.267 1364.84L276.414 1221.34C290.652 1206.57 306.552 1192.92 321.554 1178.92L406.842 1099.19L660.329 862.049C694.669 829.934 730.158 798.72 763.913 766.029C780.439 750.023 795.738 732.581 811.512 715.843L881.081 643.104L1110.74 403.402C1150.43 361.967 1189.53 319.728 1229.99 279.064C1252.85 275.354 1277.03 274.432 1300.14 272.271L1437.85 259.414ZM1686.39 812.845C1686.91 811.929 1687.18 811.509 1687.59 810.455C1689.19 806.39 1689.11 802.045 1687.28 798.064C1685.56 794.373 1682.41 791.541 1678.56 790.222C1673.69 788.515 1669.71 789.506 1665.21 791.664C1665.57 791.814 1665.91 791.987 1666.28 792.115C1667.84 792.669 1668.99 792.779 1670.6 792.968C1674.61 793.439 1679.06 794.617 1681.78 797.806C1684.85 801.397 1684.97 805.713 1685.34 810.137C1685.46 811.613 1685.49 811.184 1686.39 812.845ZM382.785 1256.34C377.696 1253.7 371.229 1255.53 366.67 1250.75C364.109 1248.07 363.203 1244.64 362.956 1241.06C362.828 1239.2 362.837 1237.99 362.139 1236.2C361.997 1235.84 361.789 1235.51 361.614 1235.16C359.49 1239.47 358.477 1243.18 359.942 1247.92C361.119 1251.83 363.844 1255.08 367.482 1256.92C371.316 1258.84 375.911 1259.26 379.958 1257.7C381.407 1257.14 381.559 1257.01 382.785 1256.34Z"/><path fill="#050F08" d="M710.17 1161.23C717.224 1160.8 723.785 1161.66 730.129 1164.97C740.381 1170.31 746.082 1180.87 749.258 1191.57C752.645 1203 753.254 1215.23 752.56 1227.06C751.226 1249.79 745.629 1272.49 741.322 1294.82C736.082 1321.99 731.919 1350.06 723.233 1376.36C718.278 1391.36 711.39 1404.83 703.784 1418.6C713.581 1433.22 737.963 1463.76 736.106 1481.03C735.592 1485.8 733.344 1489.94 729.483 1492.83C724.441 1496.61 717.594 1497.57 711.506 1496.43C695.021 1493.35 685.505 1473.79 676.802 1461.1C651.676 1424.98 625.415 1389.28 603.068 1351.35C593.578 1351.29 584.822 1349.91 576.618 1344.76C571.486 1341.54 567.341 1336.78 566.122 1330.72C562.634 1313.39 604.484 1253.71 616.28 1237.11C638.948 1205.23 669.432 1168.12 710.17 1161.23Z"/><path fill="#7ACCFE" d="M701.345 1214.97C703.853 1215.91 706.265 1216.59 707.636 1219.13C716.179 1234.96 681.037 1346.32 672.381 1368.56L661.188 1350.44L634.507 1308.35C647.269 1283.83 674.68 1224.57 701.345 1214.97Z"/><path fill="#050F08" d="M1359.76 502.288C1369.88 501.369 1379.35 502.062 1388.48 506.945C1393.24 509.492 1397.52 513.22 1399.04 518.579C1400.29 523.041 1399.42 526.985 1397.19 530.942C1388.42 546.49 1374.25 560.407 1363.63 574.916C1346.18 598.755 1331.99 624.31 1318.52 650.548C1327.32 670.823 1336.31 691.017 1345.48 711.127C1361.27 683.234 1411.29 594.9 1436.83 580.43C1444.47 576.105 1455.16 575.419 1463.43 578.121C1468.14 579.657 1473.45 582.746 1475.57 587.449C1477.82 592.448 1476.28 597.054 1473.85 601.654C1465.22 617.932 1449.5 633.375 1438.73 648.657C1422.58 671.573 1409.99 698.304 1396.85 723.051C1391.07 733.925 1383.34 745.567 1379.45 757.174L1380.69 758.717C1383.5 759.778 1385.96 760.043 1388.97 760.033C1403 759.985 1415.19 747.145 1424.24 737.738C1430.51 730.885 1436.34 723.634 1441.68 716.028C1449.84 704.357 1466.4 672.017 1479.73 667.72C1487.19 665.317 1494.63 667.121 1501.25 670.917C1507.83 674.697 1514.57 680.655 1516.31 688.379C1517.7 694.539 1514.7 700.151 1511.54 705.247C1505.34 715.226 1496.71 724.569 1489.45 733.884C1467.31 762.303 1441.18 801.43 1403.68 809.278C1387.87 812.586 1372.28 808.107 1358.96 799.602C1317.55 773.156 1295.92 719.46 1277.19 676.035C1272.47 665.097 1264.91 652.184 1262.75 640.562C1261.17 632.084 1263.11 622.199 1268.21 615.202C1272.23 609.672 1276.59 606.926 1283.27 605.719C1297.82 580.324 1332.97 513.662 1359.76 502.288Z"/><path fill="#050F08" d="M1182.58 685.202C1184.85 684.976 1187.14 684.832 1189.42 684.772C1200.9 684.443 1211.58 690.36 1219.64 698.194C1227.3 705.626 1235.1 716.231 1234.87 727.349C1234.74 733.652 1231.7 740.784 1226.77 744.85C1218.09 752.026 1210.35 740.048 1201.76 739.725C1198.23 739.593 1195.18 741.284 1192.63 743.578C1171.64 762.474 1162.07 826.326 1159.96 854.244C1169.76 845.524 1179.7 836.866 1188.84 827.438C1208.67 806.977 1228.55 780.819 1253.63 766.621C1263.3 761.149 1274.61 757.656 1285.61 760.983C1296.11 764.156 1304.31 773.524 1309.41 782.924C1322.6 807.226 1317.47 839.751 1310.03 865.001C1297.13 908.766 1269.48 961.837 1228.29 984.206C1221.73 987.349 1214.77 989.166 1207.46 988.899C1196.97 988.516 1183.47 983.283 1176.45 975.247C1173.43 971.783 1171.8 967.482 1172.43 962.866C1174.71 946.349 1205.63 930.656 1218.62 921.413C1252.37 897.4 1262.09 864.26 1268.83 825.078C1252.21 840.172 1234.49 854.428 1218.48 870.145C1205.68 882.717 1194.22 897.023 1180.91 908.995C1176.94 912.563 1171.17 918.042 1166.02 919.45C1165.61 919.562 1165.2 919.648 1164.78 919.753C1155.65 922.088 1147.12 923.124 1138.27 919.002C1126.91 913.71 1119.68 902.379 1115.87 890.812C1101.03 845.77 1119.99 766.824 1141.56 724.78C1150.89 706.599 1162.51 691.644 1182.58 685.202Z"/><path fill="#050F08" d="M867.365 993.172C871.152 992.846 875.568 992.468 879.276 993.374C893.397 996.825 938.534 1065.28 948.514 1082.04C972.297 1121.98 995.495 1173.8 983.151 1220.97C973.778 1256.78 939.495 1280.33 908.994 1297.95C898.854 1303.8 883.967 1312.08 871.988 1308.5C839.208 1298.7 787.468 1201.96 770.512 1171.36C766.107 1163.1 762.24 1154.69 759.652 1145.67C755.463 1131.08 755.082 1113.88 762.834 1100.38C765.714 1095.36 770.273 1089.41 776.202 1087.96C781.923 1086.57 784.905 1089.22 788.365 1093.47C800.313 1108.17 806.062 1129.21 814.297 1146.24C822.952 1164.14 864.668 1240.78 880.13 1248.07C883.436 1249.63 886.454 1248.83 889.686 1247.52C904.417 1241.56 925.714 1224.3 931.676 1209.73C948.072 1169.67 906.644 1115.96 886.34 1083.19C876.161 1066.76 866.167 1049.75 858.916 1031.8C855.439 1023.19 850.63 1010.78 854.874 1001.79C857.45 996.342 862.019 994.94 867.365 993.172Z"/><path fill="#050F08" d="M933.115 919.925C935.248 919.862 937.627 919.966 939.694 920.524C945.271 922.029 949.284 927.197 952.735 931.505C968.419 951.09 980.804 973.817 993.777 995.25L1051.42 1090.61C1065.58 1073.4 1079.71 1055.07 1090.83 1035.71C1098.38 1022.56 1104.63 1006.53 1113.86 994.601C1116.92 990.647 1120.57 987.956 1125.32 986.343C1133.36 983.612 1143.21 984.108 1150.83 987.927C1156.23 990.636 1160.27 995.162 1161.97 1001.01C1165.84 1014.34 1153.43 1030.68 1147.09 1041.76C1132.04 1067.83 1099.29 1123.65 1077.03 1142.16C1069.33 1148.56 1060.39 1150.59 1050.48 1149.41C1037.96 1147.91 1031.2 1141.82 1023.91 1132.19C1012.65 1117.31 1003.02 1100.62 992.56 1085.1C970.109 1051.76 933.87 1004.05 920.374 967.627C917.829 960.76 917.348 954.256 918.4 946.999C920.008 935.907 924.082 926.734 933.115 919.925Z"/><path fill="#050F08" d="M993.18 1449.19C995.049 1449.15 996.861 1449.09 998.704 1449.47C1003.6 1450.48 1008.58 1453.79 1011.08 1458.17C1013.15 1461.8 1013.66 1466.5 1012.12 1470.45C1010.56 1474.44 1006.6 1478.48 1003.71 1481.62C968.817 1519.62 931.508 1555.89 895.501 1592.87C880.052 1608.73 814.822 1678.87 801.906 1685.74C798.558 1686.17 794.907 1686.28 791.716 1685.02C787.702 1683.44 783.83 1680.34 782.229 1676.24C780.906 1672.86 781.128 1668.27 782.648 1664.97C788.001 1653.36 894.944 1546.43 912.143 1528.7L958.87 1480.51C967.056 1472.07 975.023 1463.07 983.663 1455.11C986.619 1452.39 989.485 1450.74 993.18 1449.19Z"/><path fill="#050F08" d="M1246.09 362.256C1249.44 361.83 1253.09 361.715 1256.28 362.975C1260.3 364.56 1264.17 367.659 1265.77 371.759C1267.09 375.143 1266.87 379.731 1265.35 383.028C1260 394.633 1153.05 501.568 1135.86 519.304L1089.13 567.491C1080.94 575.932 1072.98 584.928 1064.34 592.887C1061.38 595.611 1058.52 597.258 1054.82 598.81C1052.95 598.853 1051.14 598.909 1049.3 598.529C1044.4 597.52 1039.42 594.212 1036.92 589.83C1034.85 586.2 1034.34 581.498 1035.88 577.553C1037.44 573.556 1041.4 569.52 1044.29 566.376C1079.18 528.358 1116.51 492.09 1152.52 455.106C1167.97 439.242 1233.18 369.127 1246.09 362.256Z"/><path fill="#050F08" d="M361.614 1235.16C367.613 1225.75 378.802 1217.08 386.901 1209.32L433.532 1164.82L523.661 1079.06C538.818 1064.64 553.687 1049.51 569.383 1035.7C572.106 1033.3 574.974 1031.38 578.553 1030.53C583.071 1029.46 587.445 1030.28 591.274 1032.9C594.707 1035.25 597.143 1038.73 597.883 1042.85C598.437 1045.93 597.963 1048.73 597.18 1051.72C597.085 1052.08 597.01 1052.45 596.901 1052.81C595.918 1056.05 593.288 1058.42 590.952 1060.73C544.052 1107.2 494.888 1151.81 446.903 1197.18C436.203 1207.3 391.832 1251.64 382.785 1256.34C377.696 1253.7 371.229 1255.53 366.67 1250.75C364.109 1248.07 363.203 1244.64 362.956 1241.06C362.828 1239.2 362.837 1237.99 362.139 1236.2C361.997 1235.84 361.789 1235.51 361.614 1235.16Z"/><path fill="#050F08" d="M1665.21 791.664C1665.57 791.814 1665.91 791.987 1666.28 792.115C1667.84 792.669 1668.99 792.779 1670.6 792.968C1674.61 793.439 1679.06 794.617 1681.78 797.806C1684.85 801.397 1684.97 805.713 1685.34 810.137C1685.46 811.613 1685.49 811.184 1686.39 812.845C1681.42 822.329 1587.64 908.677 1571.45 924.076C1540.94 953.091 1511.08 983.376 1479.67 1011.37C1475.14 1015.4 1470.47 1018.49 1464.12 1017.87C1459.6 1017.43 1455.26 1014.82 1452.64 1011.13C1450.01 1007.45 1449.31 1002.85 1450.25 998.464C1450.93 995.31 1452.03 992.606 1454.22 990.214C1467.3 975.976 1482.54 963.014 1496.61 949.689L1580.05 870.74L1634.84 818.957C1644.4 809.946 1654.3 798.859 1665.21 791.664Z"/><path fill="#050F08" fill-opacity="0.87058824" d="M1665.21 791.664C1669.71 789.506 1673.69 788.515 1678.56 790.222C1682.41 791.541 1685.56 794.373 1687.28 798.064C1689.11 802.045 1689.19 806.39 1687.59 810.455C1687.18 811.509 1686.91 811.929 1686.39 812.845C1685.49 811.184 1685.46 811.613 1685.34 810.137C1684.97 805.713 1684.85 801.397 1681.78 797.806C1679.06 794.617 1674.61 793.439 1670.6 792.968C1668.99 792.779 1667.84 792.669 1666.28 792.115C1665.91 791.987 1665.57 791.814 1665.21 791.664Z"/><path fill="#050F08" fill-opacity="0.87058824" d="M361.614 1235.16C361.789 1235.51 361.997 1235.84 362.139 1236.2C362.837 1237.99 362.828 1239.2 362.956 1241.06C363.203 1244.64 364.109 1248.07 366.67 1250.75C371.229 1255.53 377.696 1253.7 382.785 1256.34C381.559 1257.01 381.407 1257.14 379.958 1257.7C375.911 1259.26 371.316 1258.84 367.482 1256.92C363.844 1255.08 361.119 1251.83 359.942 1247.92C358.477 1243.18 359.49 1239.47 361.614 1235.16Z"/></svg>